# xmcd
#
# Track frame offsets:
#	175
#	15500
#	32825
#	47587
#	62060
#	81722
#	96535
#	113187
#	132632
#	145457
#
# Disc length: 2139 seconds
#
# Revision: 2
# Processed by: cddbd v1.5.2PL0 Copyright (c) Steve Scherf et al.
# Submitted via: audiograbber 1.83.01
#
DISCID=9508590a
DTITLE=Joan Kennedy - Candle in the Window
DYEAR=1990
DGENRE=Country
TTITLE0=The Trouble With Love
TTITLE1=Sometimes She Feels Like a Man
TTITLE2=Spanish Is a Lovng Tonque
TTITLE3=If You Want Love
TTITLE4=Some People Belong Together
TTITLE5=Wild Again
TTITLE6=God's Green Earth
TTITLE7=Just Can't Let Go
TTITLE8=I Never Met a Liar
TTITLE9=Candle in the Window
EXTD=
EXTT0=
EXTT1=
EXTT2=
EXTT3=
EXTT4=
EXTT5=
EXTT6=
EXTT7=
EXTT8=
EXTT9=
PLAYORDER=
